# xmcd CD database file
#
# Track frame offsets:
#	150
#	20035
#	37895
#	55354
#	69655
#	86070
#	92187
#	114998
#	135598
#	147118
#	161611
#	172853
#	193378
#	202673
#
# Disc length: 3774 seconds
#
# Revision: 0
# Processed by: cddbd v1.5.2PL0 Copyright (c) Steve Scherf et al.
# Submitted via: CDex 1.50
#
DISCID=be0ebc0e
DTITLE=Moriarty - Gee Whiz But This Is A Lonesome Town
DYEAR=2007
DGENRE=Jazz
TTITLE0=Jimmy
TTITLE1=Oshkosh Bend
TTITLE2=Private Lilly
TTITLE3=Motel
TTITLE4=Animals Can´t Laugh
TTITLE5=(...)
TTITLE6=Cottonflower
TTITLE7=Whiteman´s Ballad
TTITLE8=Tagene Ura
TTITLE9=Fireday
TTITLE10=Lovelinesse
TTITLE11=Jaywalker (Song for Beryl)
TTITLE12=Enjoy the Silence
TTITLE13=Bacon
EXTD=YEAR: 2007
EXTT0=
EXTT1=
EXTT2=
EXTT3=
EXTT4=
EXTT5=
EXTT6=
EXTT7=
EXTT8=
EXTT9=
EXTT10=
EXTT11=
EXTT12=
EXTT13=
PLAYORDER=
